<svg xmlns="http://www.w3.org/2000/svg" viewBox="0 0 657.3 293.07"><defs><style>.cls-1{isolation:isolate;}.cls-2{fill:#28a8e0;}.cls-2,.cls-3,.cls-4,.cls-5,.cls-6,.cls-8{mix-blend-mode:multiply;}.cls-3{fill:#e90e8b;}.cls-4{fill:#fcee21;}.cls-5{fill:#f69321;}.cls-7{fill:#652f8f;}.cls-8{fill:#29b574;}</style></defs><title>pittsburg</title><g class="cls-1"><g id="Layer_2" data-name="Layer 2"><g id="Layer_1-2" data-name="Layer 1"><path class="cls-2" d="M302,286.85l-2.89-1.72v-2.95h.31v-1l-.37-.37v-4.48l1.1-.8V274h-.92v-4.54h-73.8V236.25h.61v-.73h-.67V233.6c0-.4,0-.82,0-1.22,0-.66,0-.67.54-1a1.52,1.52,0,0,0,.51-1,2.52,2.52,0,0,0,1.61-1.06c.34-.48,1.17-.52,1-1.29v-1.71l.62-.74V225h-6.82v-1.1l-.55-.92v-8.47l1.16-1.17v-.67l.89-.9v-.39h-2.18v-1.48H211.51v-6.2H203v-2h.67a6.2,6.2,0,0,1,1.06-1.41c.59-.49.64-1,1.07-1.59.22-.3.6-.4.76-.76s0-.76.24-1.1H203v-1.47h.61l.43-1.17-1-.36.06-.07c0-.36.51-.42.64-.78a1.56,1.56,0,0,0-.11-1c-.25-.49-.88-.59-1.23-1s-.19-1.16-.36-1.78c-.25-1,.2-2.62-1-3.06v-.06a3.35,3.35,0,0,0-2.85,1.83,3.1,3.1,0,0,0-.6,1.64c0,.51.64,1.09.15,1.46-.27.22-.59,0-.8.38s-.07.78-.08,1.07l-41.2-16.7a4.34,4.34,0,0,0-.16-1.08c-.16-.44-.61-.68-.43-1.12.09-.22.37-.3.41-.56s-.13-.37-.15-.55c-.06-.61.16-.67-.29-1.14-.7-.74.14-1.75-.35-2.7-.08-.17-.23-.28-.28-.47s.06-.47,0-.69c-.16-.53-.69-.42-1.08-.71s-.47-.55-.9-.73a4.68,4.68,0,0,0-1.16-.34v0l-.1,0-.1,0v0a4.68,4.68,0,0,0-1.16.34c-.43.18-.55.46-.9.73s-.92.18-1.08.71c-.07.22,0,.47,0,.69s-.19.3-.28.47c-.49.95.35,2-.35,2.7-.45.47-.23.53-.29,1.14,0,.18-.18.36-.15.55s.32.34.41.56c.19.44-.27.68-.43,1.12a4.34,4.34,0,0,0-.16,1.08l-41.2,16.7c0-.29.08-.81-.08-1.07s-.53-.16-.8-.38c-.49-.37.15-1,.15-1.46a3.1,3.1,0,0,0-.6-1.64,3.35,3.35,0,0,0-2.85-1.83v.06c-1.23.44-.78,2.1-1,3.06-.17.62.08,1.27-.36,1.78s-1,.52-1.23,1a1.56,1.56,0,0,0-.11,1c.13.36.6.42.64.78l.06.07-1,.36.43,1.17h.61v1.47h-3.8c.2.34.09.76.24,1.1s.54.46.76.76c.43.6.48,1.1,1.07,1.59a6.2,6.2,0,0,1,1.06,1.41h.67v2H90.63v6.2H80v1.48H77.77v.39l.89.9v.67l1.16,1.17V223l-.55.92V225H72.46v.56l.61.74V228c-.15.77.68.81,1,1.29a2.48,2.48,0,0,0,1.6,1.06,1.49,1.49,0,0,0,.52,1c.52.38.56.39.53,1,0,.4,0,.82,0,1.22v1.92h-.67v.73h.61v33.16H2.89V274H2v1.6l1.1.8v4.48l-.37.37v1H3v2.95L.12,286.85,0,293.07H122.82V280.13h7.7v12.94h16.7V280.13h7.7v12.94h16.7V280.13h7.7v12.94H302.14Z"/><polygon class="cls-3" points="654.49 126.98 654.49 116.54 647.47 116.54 647.47 57.57 633.4 57.57 633.4 47.99 610.98 30.24 610.98 57.57 609.2 57.57 609.2 0 607.17 0 607.17 57.57 605.4 57.57 605.4 30.24 582.98 47.99 582.98 57.57 568.91 57.57 568.91 116.54 561.88 116.54 561.88 126.98 559.08 126.98 559.08 293.07 587.93 293.07 587.93 262.58 628.45 262.58 628.45 293.07 657.3 293.07 657.3 126.98 654.49 126.98"/><polygon class="cls-4" points="235.26 54.72 229.74 68.58 229.74 87.16 227.87 87.16 227.87 71.73 222.35 57.88 216.83 71.73 216.83 87.16 210.48 87.16 210.48 79.25 206.69 69.74 202.9 79.25 202.9 87.16 197.11 87.16 197.11 79.25 193.32 69.74 189.53 79.25 189.53 87.16 181.83 87.16 181.83 71.73 176.31 57.88 170.79 71.73 170.79 87.16 168.92 87.16 168.92 68.58 163.4 54.72 157.88 68.58 157.88 87.16 157.88 88.74 157.88 293.07 240.78 293.07 240.78 88.74 240.78 87.16 240.78 68.58 235.26 54.72"/><path class="cls-5" d="M573.48,120.09H572V77.38c-.53-.89-1.06-1.76-1.59-2.64h-2.31V62.51l-1.59-2.63h-4.3v-6c-.51-.86-1-1.71-1.55-2.56h-2.81V47.87l-1.55-2.56h-3.68V40l-1.08-1.79h-3.65v-4l-1-1.73h-3.12V28.57l-1-1.61h0l-.08-.08,0,0h0l-2.45-2.11V20.52a7.4,7.4,0,0,0-2.76-5h0V14c.39-.22.77-.72.35-1.87,0,0-.75-1.42-1.95-1.49h-.09c-1.18.07-1.94,1.49-1.94,1.49-.42,1.15,0,1.65.35,1.87v1.5h0a7.4,7.4,0,0,0-2.76,5v4.21L529,26.84h0s0,0,0,0l-.08.08h0l-1,1.61v3.89h-3.13l-1,1.73v4h-3.66c-.36.6-.72,1.19-1.07,1.79v5.33h-3.69l-1.55,2.56v3.45H511l-1.55,2.56v6h-4.29c-.54.87-1.07,1.75-1.6,2.63V74.74h-2.3c-.53.88-1.06,1.75-1.59,2.64v42.71h-1.49c-.89,1.46-1.8,2.9-2.72,4.34V293.07h80.78V124.43C575.28,123,574.37,121.55,573.48,120.09ZM536.76,18.67l1.86.51v4.51h-1.86Zm-3.78.51,1.86-.51v5H533Z"/><g class="cls-6"><path class="cls-7" d="M366.42,234.49v9.42a1929.52,1929.52,0,0,1,270.86.62V235.1A1937.13,1937.13,0,0,0,366.42,234.49Z"/><path class="cls-7" d="M525,227.78c-47.86,0-89.12-23.54-100.91-57.87l1.27-.44c11.85,34.45,53.95,57.86,102.46,56.92l0,1.36C526.93,227.77,526,227.78,525,227.78Z"/><rect class="cls-7" x="426.22" y="171.78" width="0.67" height="66.5"/><rect class="cls-7" x="432.1" y="185.81" width="0.69" height="52.48"/><rect class="cls-7" x="439.79" y="194.63" width="0.68" height="43.66"/><rect class="cls-7" x="447.03" y="201.19" width="0.68" height="37.1"/><rect class="cls-7" x="455.4" y="207.52" width="0.68" height="30.77"/><rect class="cls-7" x="463.32" y="212.72" width="0.68" height="25.56"/><rect class="cls-7" x="471.23" y="216.34" width="0.68" height="21.94"/><rect class="cls-7" x="479.38" y="219.51" width="0.68" height="18.77"/><rect class="cls-7" x="487.98" y="222.45" width="0.68" height="15.83"/><rect class="cls-7" x="496.12" y="224.49" width="0.68" height="13.8"/><rect class="cls-7" x="504.49" y="226.07" width="0.67" height="12.22"/><rect class="cls-7" x="513.08" y="226.75" width="0.69" height="11.54"/><rect class="cls-7" x="521" y="226.75" width="0.68" height="11.54"/><path class="cls-7" d="M523.24,227.78c47.87,0,89.12-23.54,100.92-57.87l-1.28-.44c-11.84,34.45-53.94,57.86-102.45,56.92l0,1.36Z"/><rect class="cls-7" x="621.38" y="171.78" width="0.68" height="66.5"/><rect class="cls-7" x="615.49" y="185.81" width="0.69" height="52.48"/><rect class="cls-7" x="607.8" y="194.63" width="0.69" height="43.66"/><rect class="cls-7" x="600.56" y="201.19" width="0.69" height="37.1"/><rect class="cls-7" x="592.19" y="207.52" width="0.68" height="30.77"/><rect class="cls-7" x="584.28" y="212.72" width="0.68" height="25.56"/><rect class="cls-7" x="576.36" y="216.34" width="0.69" height="21.94"/><rect class="cls-7" x="568.22" y="219.51" width="0.68" height="18.77"/><rect class="cls-7" x="559.62" y="222.45" width="0.68" height="15.83"/><rect class="cls-7" x="551.48" y="224.49" width="0.68" height="13.8"/><rect class="cls-7" x="543.11" y="226.07" width="0.67" height="12.22"/><rect class="cls-7" x="534.51" y="226.75" width="0.68" height="11.54"/><rect class="cls-7" x="526.6" y="226.75" width="0.67" height="11.54"/><path class="cls-7" d="M482.37,226.12c-47.88,0-89.13-21.38-100.93-52.57l1.29-.4c11.83,31.3,53.93,52.57,102.44,51.71l0,1.23Z"/><rect class="cls-7" x="383.55" y="175.25" width="0.68" height="60.42"/><rect class="cls-7" x="389.43" y="187.99" width="0.67" height="47.68"/><rect class="cls-7" x="397.12" y="196" width="0.68" height="39.66"/><rect class="cls-7" x="404.36" y="201.97" width="0.68" height="33.7"/><rect class="cls-7" x="412.73" y="207.72" width="0.68" height="27.95"/><rect class="cls-7" x="420.64" y="212.45" width="0.68" height="23.22"/><rect class="cls-7" x="428.56" y="215.73" width="0.68" height="19.94"/><rect class="cls-7" x="436.7" y="218.61" width="0.68" height="17.06"/><rect class="cls-7" x="445.3" y="221.28" width="0.69" height="14.39"/><rect class="cls-7" x="453.44" y="223.13" width="0.68" height="12.54"/><rect class="cls-7" x="461.81" y="224.57" width="0.68" height="11.1"/><rect class="cls-7" x="470.41" y="225.19" width="0.68" height="10.48"/><rect class="cls-7" x="478.33" y="225.19" width="0.68" height="10.48"/><path class="cls-7" d="M480.57,226.12c47.87,0,89.12-21.38,100.93-52.57l-1.3-.4c-11.83,31.3-53.93,52.57-102.44,51.71l0,1.23C478.68,226.11,479.62,226.12,480.57,226.12Z"/><rect class="cls-7" x="578.7" y="175.25" width="0.68" height="60.42"/><rect class="cls-7" x="572.82" y="187.99" width="0.68" height="47.68"/><rect class="cls-7" x="565.13" y="196" width="0.67" height="39.66"/><rect class="cls-7" x="557.89" y="201.97" width="0.67" height="33.7"/><rect class="cls-7" x="549.52" y="207.72" width="0.68" height="27.95"/><rect class="cls-7" x="541.6" y="212.45" width="0.69" height="23.22"/><rect class="cls-7" x="533.69" y="215.73" width="0.67" height="19.94"/><rect class="cls-7" x="525.54" y="218.61" width="0.68" height="17.06"/><rect class="cls-7" x="516.95" y="221.28" width="0.67" height="14.39"/><rect class="cls-7" x="508.81" y="223.13" width="0.68" height="12.54"/><rect class="cls-7" x="500.43" y="224.57" width="0.68" height="11.1"/><rect class="cls-7" x="491.84" y="225.19" width="0.67" height="10.48"/><rect class="cls-7" x="483.92" y="225.19" width="0.69" height="10.48"/><path class="cls-7" d="M582.86,266.45a2.54,2.54,0,0,1-2.59,2.49h-2.92a2.55,2.55,0,0,1-2.6-2.49V171a2.56,2.56,0,0,1,2.6-2.5h2.92a2.55,2.55,0,0,1,2.59,2.5Z"/><path class="cls-7" d="M626.85,266.45a2.54,2.54,0,0,1-2.59,2.49h-2.92a2.54,2.54,0,0,1-2.6-2.49V171a2.55,2.55,0,0,1,2.6-2.5h2.92a2.55,2.55,0,0,1,2.59,2.5Z"/><rect class="cls-7" x="567.73" y="253.14" width="66.14" height="39.93"/><path class="cls-7" d="M601.58,170v0H600v0c-13.25.26-19.34,3.72-19.34,3.72v36.69a20.12,20.12,0,0,1,40.24,0V173.69S614.83,170.23,601.58,170ZM588,192.41a18.54,18.54,0,0,0-4.67,5.22v-15.7a40.65,40.65,0,0,1,4.67-1.2Zm7.28-3.6a21.89,21.89,0,0,0-4.68,1.91V180.27c1.4-.21,3-.39,4.68-.53Zm8.48-.62a22.27,22.27,0,0,0-2.6-.16,20.28,20.28,0,0,0-2.6.17v-8.66l1.82-.06v0h1.56v0l1.82.06Zm8,2.53a21.76,21.76,0,0,0-4.69-1.91v-9.07c1.73.14,3.29.32,4.69.53Zm7.27,6.91a18.56,18.56,0,0,0-4.68-5.22V180.73a40.36,40.36,0,0,1,4.68,1.2Z"/><path class="cls-7" d="M384,266.45a2.54,2.54,0,0,1-2.6,2.49h-2.91a2.54,2.54,0,0,1-2.6-2.49V171a2.55,2.55,0,0,1,2.6-2.5h2.91A2.55,2.55,0,0,1,384,171Z"/><path class="cls-7" d="M428,266.45a2.54,2.54,0,0,1-2.6,2.49h-2.92a2.54,2.54,0,0,1-2.59-2.49V171a2.55,2.55,0,0,1,2.59-2.5h2.92A2.55,2.55,0,0,1,428,171Z"/><rect class="cls-7" x="368.91" y="253.14" width="66.14" height="39.93"/><path class="cls-7" d="M402.76,170v0H401.2v0c-13.25.26-19.34,3.72-19.34,3.72v36.69a20.12,20.12,0,0,1,40.24,0V173.69S416,170.23,402.76,170Zm-13.6,22.44a18.73,18.73,0,0,0-4.68,5.22v-15.7a40.91,40.91,0,0,1,4.68-1.2Zm7.28-3.6a21.89,21.89,0,0,0-4.68,1.91V180.27c1.4-.21,3-.39,4.68-.53Zm8.47-.62a22.1,22.1,0,0,0-2.59-.16,20.28,20.28,0,0,0-2.6.17v-8.66l1.81-.06v0h1.56v0l1.82.06Zm8,2.53a21.68,21.68,0,0,0-4.68-1.91v-9.07c1.72.14,3.28.32,4.68.53Zm7.28,6.91a18.71,18.71,0,0,0-4.68-5.22V180.73a40.91,40.91,0,0,1,4.68,1.2Z"/></g><path class="cls-8" d="M268.26,187.72V152.6H262.6l-32.23-16.11v-.76h1.42v-3h-2.15a2.63,2.63,0,0,0-.21-5v-8.43h3.49v-1.13h-3.49v-4.35h-1.51v4.35h-3.5v1.13h3.5v8.43a2.63,2.63,0,0,0-.21,5h-2.15v3H227v.76L194.75,152.6h-5.67v35.12l-44.55,27.94,1.13,4.15h2.65v73.26H159.9v-27.5a10.71,10.71,0,0,1,10.71-10.7h.49a10.71,10.71,0,0,1,10.71,10.7v27.5H212V252.29a15.87,15.87,0,0,1,15.87-15.87h.73a15.88,15.88,0,0,1,15.87,15.87v40.78h31.72v-27.5a10.7,10.7,0,0,1,10.7-10.7h.49a10.71,10.71,0,0,1,10.71,10.7v27.5H309V219.81h2.64l1.14-4.15Zm-98.68,50.72a6.23,6.23,0,1,1,6.23-6.23A6.23,6.23,0,0,1,169.58,238.44Zm59.09-48.71a17,17,0,1,1,17-17A17,17,0,0,1,228.67,189.73Zm59.1,48.71a6.23,6.23,0,1,1,6.23-6.23A6.23,6.23,0,0,1,287.77,238.44Z"/></g></g></g></svg>