<?xml version="1.0" encoding="utf-8"?>
<!-- Generator: Adobe Illustrator 22.1.0, SVG Export Plug-In . SVG Version: 6.00 Build 0)  -->
<svg version="1.1" id="Layer_1" xmlns="http://www.w3.org/2000/svg" xmlns:xlink="http://www.w3.org/1999/xlink" x="0px" y="0px"
	 viewBox="0 0 841.9 595.3" style="enable-background:new 0 0 841.9 595.3;" xml:space="preserve">
<style type="text/css">
	.st0{fill:#9A2479;}
	.st1{fill:#E90E8B;}
	.st2{fill:#28A8E0;}
	.st3{fill:#FCEE21;}
	.st4{fill:#652F8F;}
	.st5{fill:#29B574;}
	.st6{fill:#EB2227;}
	.st7{fill:#F69321;}
</style>
<g>
	<path class="st0" d="M139.2,173.2c0.9,0.6,2.6,1.1,4,1.1c2.9,0,4.7-1.9,4.7-4.7c0-2.6-1.5-4.1-3.7-5.8c-2.2-1.5-5.2-4.1-5.2-7.7
		c0-4.2,2.9-7.3,7.4-7.3c1.7,0,3.2,0.6,3.9,1l-0.8,2.7c-0.7-0.5-1.9-1-3.3-1c-2.7,0-4,2.1-4,4c0,2.8,1.4,3.9,4.1,5.7
		c3.4,2.4,4.8,4.9,4.8,8c0,4.8-3.4,7.8-7.8,7.8c-1.9,0-3.9-0.6-4.7-1.2L139.2,173.2z"/>
	<path class="st0" d="M190.3,168.6l-1.8,8.4h-3.1l6.4-27.9h3.5l6.2,27.9h-3.1l-1.8-8.4H190.3z M196,166l-1.5-7.1
		c-0.4-2-0.8-4.3-1.1-6.4h-0.1c-0.3,2.1-0.7,4.5-1.1,6.4l-1.5,7.1H196z"/>
	<path class="st0" d="M237.2,176.9v-27.9h3l5.1,13.1c1.2,3,2.6,6.7,3.6,9.7h0.1c-0.3-4.4-0.4-8-0.4-12.8v-10h2.9v27.9h-3l-5.3-13.4
		c-1.1-2.8-2.3-6-3.3-9.5h-0.1c0.2,3.7,0.3,7.3,0.3,13.2v9.6H237.2z"/>
	<path class="st0" d="M330.7,168.6l-1.8,8.4h-3.1l6.4-27.9h3.5l6.2,27.9h-3.1l-1.8-8.4H330.7z M336.4,166l-1.5-7.1
		c-0.4-2-0.8-4.3-1.1-6.4h-0.1c-0.3,2.1-0.7,4.5-1.1,6.4l-1.5,7.1H336.4z"/>
	<path class="st0" d="M377.6,176.9v-27.9h3l5.1,13.1c1.2,3,2.6,6.7,3.6,9.7h0.1c-0.3-4.4-0.4-8-0.4-12.8v-10h2.9v27.9h-3l-5.3-13.4
		c-1.1-2.8-2.3-6-3.3-9.5h-0.1c0.2,3.7,0.3,7.3,0.3,13.2v9.6H377.6z"/>
	<path class="st0" d="M432.3,151.9h-5.1v-2.9h13.4v2.9h-5.1v25h-3.2V151.9z"/>
	<path class="st0" d="M489.2,162.8c0,10.4-3.6,14.4-8.1,14.4c-4.6,0-7.7-4.9-7.7-14.3c0-9.2,3.3-14.2,8.2-14.2
		C486.3,148.7,489.2,153.9,489.2,162.8z M476.7,163c0,5.7,1.1,11.5,4.7,11.5c3.6,0,4.5-6.1,4.5-11.6c0-5.2-0.9-11.4-4.6-11.4
		C477.8,151.5,476.7,157.3,476.7,163z"/>
	<path class="st0" d="M525.2,176.9v-27.9h3l5.1,13.1c1.2,3,2.6,6.7,3.6,9.7h0.1c-0.3-4.4-0.4-8-0.4-12.8v-10h2.9v27.9h-3l-5.3-13.4
		c-1.1-2.8-2.3-6-3.3-9.5h-0.1c0.2,3.7,0.3,7.3,0.3,13.2v9.6H525.2z"/>
	<path class="st0" d="M579.9,149.1v27.9h-3.2v-27.9H579.9z"/>
	<path class="st0" d="M631.8,162.8c0,10.4-3.6,14.4-8.1,14.4c-4.6,0-7.7-4.9-7.7-14.3c0-9.2,3.3-14.2,8.2-14.2
		C628.9,148.7,631.8,153.9,631.8,162.8z M619.3,163c0,5.7,1.1,11.5,4.7,11.5c3.6,0,4.5-6.1,4.5-11.6c0-5.2-1-11.4-4.6-11.4
		C620.4,151.5,619.3,157.3,619.3,163z"/>
</g>
<path class="st1" d="M294,362.4v-7.3h-12.6v-3.7h-13c-2.9-1.3-8.6-4.2-11.6-8.2v-5.7h-7.1c0,0-1-8-9.1-8.4v0c-0.1,0-0.2,0-0.3,0
	c-0.1,0-0.2,0-0.3,0v0c-8.1,0.4-9.1,8.4-9.1,8.4h-7.1v5.7c-3,4-8.7,6.9-11.6,8.2h-13v3.7h-12.6v7.3h-47.1v76.2h67.3V423
	c0-2.2,1.8-4,4-4c2.2,0,4,1.8,4,4v15.7h14.1v-21.9c0-6.4,5.2-11.5,11.5-11.5c6.4,0,11.5,5.2,11.5,11.5v21.9h14.1V423
	c0-2.2,1.8-4,4-4c2.2,0,4,1.8,4,4v15.7h67.3v-76.2H294z"/>
<path class="st2" d="M670.5,232.6l-0.8-3.6h-0.1c-0.1-2.7-10.4-4.9-23.8-5.4l-2.4-47.8l-2.4,47.8c-13.4,0.4-23.6,2.6-23.7,5.4h-0.1
	l-0.8,3.6l6.9,21.8c0,0,0,0.1,0,0.1c0,2.3,6.8,4.2,15.7,4.7l-4.3,179.5h8h1.6h8l-4.3-179.5c8.9-0.4,15.7-2.3,15.7-4.7
	c0,0,0-0.1,0-0.1L670.5,232.6z"/>
<path class="st3" d="M398,406.2v-17.7l-1.9-2.8v-16.1l-2-2.5v-16.7l-1.5-2v-15.6l-1.5-2.2v-11.4l-1.3-1.3v-26.7l3.6-1.4l-0.1-0.3
	l-21.2-5.4v0l-0.1,0l-0.1,0v0l-21.2,5.4l-0.1,0.3l3.6,1.4V318l-1.3,1.3v11.4l-1.5,2.2v0.1h-8v-1l-1.5-0.5v-2.8l-0.3-1.1
	c0,0,0.8-0.6,0.1-1c0,0-0.3-0.8-0.7-0.4l-0.4,0.2l-0.4-5.7l-0.4-0.4l0.1-1.1h0.8v-1.1H340c0,0,0-0.9-0.6-0.9c-0.6,0-0.6,0.9-0.6,0.9
	h-0.7v1.1h0.8l0.1,1.1l-0.4,0.4l-0.4,5.7l-0.4-0.2c-0.4-0.4-0.7,0.4-0.7,0.4c-0.6,0.5,0.1,1,0.1,1l-0.3,1.1v2.8l-1.5,0.5v1h-8.4
	l-2.5-3.7v-3.6h-1.2v-3.1h0.5c0,0,0.1,0.6,0.6,0.6c0,0,0.6,0,0.6-0.6c0,0,0.5-0.3,0.5-0.8c0,0,0-0.6-0.6-0.6c0,0,0-0.5-0.5-0.5
	c0,0-0.6,0-0.6,0.5h-0.6v-0.7c0,0,0.6-0.1,0.6-0.5c0,0,0-0.6-0.6-0.6c0,0,0-0.5-0.4-0.6v0c0,0,0,0,0,0c0,0,0,0,0,0v0
	c-0.4,0.1-0.4,0.6-0.4,0.6c-0.6,0-0.6,0.6-0.6,0.6c0,0.5,0.6,0.5,0.6,0.5v0.7h-0.6c0-0.5-0.6-0.5-0.6-0.5c-0.5,0-0.5,0.5-0.5,0.5
	c-0.6,0-0.6,0.6-0.6,0.6c0,0.6,0.5,0.8,0.5,0.8c0,0.5,0.6,0.6,0.6,0.6c0.5,0,0.6-0.6,0.6-0.6h0.5v3.1h-1.2v3.6l-2.5,3.7h-8.4v-1
	l-1.5-0.5v-2.8l-0.3-1.1c0,0,0.8-0.6,0.1-1c0,0-0.3-0.8-0.7-0.4l-0.4,0.2l-0.4-5.7l-0.4-0.4l0.1-1.1h0.8v-1.1H307c0,0,0-0.9-0.6-0.9
	c-0.6,0-0.6,0.9-0.6,0.9h-0.7v1.1h0.8l0.1,1.1l-0.4,0.4l-0.4,5.7l-0.4-0.2c-0.4-0.4-0.7,0.4-0.7,0.4c-0.6,0.5,0.1,1,0.1,1l-0.3,1.1
	v2.8l-1.5,0.5v1h-6.4v-0.1l-1.5-2.2v-11.4l-1.3-1.3v-26.7l3.6-1.4l-0.1-0.3l-21.2-5.4v0l-0.1,0l-0.1,0v0l-21.2,5.4l-0.1,0.3l3.6,1.4
	V318l-1.3,1.3v11.4l-1.5,2.2v15.6l-1.5,2v16.7l-2,2.5v16.1l-1.9,2.8v17.7l-2.3,2.3v30.1h28.3h0.1h16.4H304h39.5h11.9h16.4h0.1h28.3
	v-30.1L398,406.2z M277.2,350.5c0,1.9-1.6,3.5-3.5,3.5c-1.9,0-3.5-1.6-3.5-3.5c0-1.9,1.6-3.5,3.5-3.5
	C275.7,347,277.2,348.5,277.2,350.5z M268.4,300.6c0,0,0.3-3.3,2.6-3.9v0c0,0,0,0,0,0c0,0,0,0,0,0v0c2.3,0.6,2.6,3.9,2.6,3.9v33.8
	H271h0h-2.6V300.6z M277.2,432.9h-6.4h-0.1h-6.4v-19c0,0,0.7-9.4,6.4-11.1v0c0,0,0,0,0,0c0,0,0,0,0,0v0c5.7,1.7,6.4,11.1,6.4,11.1
	V432.9z M283.7,334.4h-2.6h0h-2.6v-33.8c0,0,0.3-3.3,2.6-3.9v0c0,0,0,0,0,0c0,0,0,0,0,0v0c2.3,0.6,2.6,3.9,2.6,3.9V334.4z
	 M323.8,348.9c3.8,0,6.9,3.1,6.9,6.9c0,3.8-3.1,6.9-6.9,6.9c-3.8,0-6.9-3.1-6.9-6.9C316.9,352,320,348.9,323.8,348.9z M332.1,432.9
	h-8.3h-0.1h-8.3v-19.8c0,0,0.9-9.8,8.3-11.6v0c0,0,0,0,0.1,0c0,0,0,0,0.1,0v0c7.4,1.7,8.3,11.6,8.3,11.6V432.9z M374,300.6
	c0,0,0.3-3.3,2.6-3.9v0c0,0,0,0,0,0c0,0,0,0,0,0v0c2.3,0.6,2.6,3.9,2.6,3.9v33.8h-2.6h0H374V300.6z M373.8,347
	c1.9,0,3.5,1.6,3.5,3.5c0,1.9-1.6,3.5-3.5,3.5s-3.5-1.6-3.5-3.5C370.3,348.5,371.8,347,373.8,347z M368.9,334.4h-2.6h0h-2.6v-33.8
	c0,0,0.3-3.3,2.6-3.9v0c0,0,0,0,0,0c0,0,0,0,0,0v0c2.3,0.6,2.6,3.9,2.6,3.9V334.4z M383.1,432.9h-6.4h-0.1h-6.4v-19
	c0,0,0.7-9.4,6.4-11.1v0c0,0,0,0,0.1,0c0,0,0,0,0,0v0c5.7,1.7,6.4,11.1,6.4,11.1V432.9z"/>
<path class="st4" d="M604,429v-82.1h-4.1v-12.2h-1.6v-3.7h-1.5v-26.5l2.2-2.1V300l-1.3-0.7v-8c0,0,0.1-2.2-1.4-2.2
	c0,0-1.5-0.3-1.5,2.1v3.6l-15.8-13.6v-4.5c0,0,0.1-2.5-2.6-2.8V268h2.3v-1h-2.3V263h-1v4.1h-2.3v1h2.3v5.8c-2.7,0.3-2.6,2.8-2.6,2.8
	v4.5l-15.8,13.6v-3.6c0-2.5-1.5-2.1-1.5-2.1c-1.5,0-1.4,2.2-1.4,2.2v8l-1.3,0.7v2.4l2.2,2.1v26.5h-1.5v3.7h-1.6v12.2h-4.1v5.4
	c-1.4-1-6-4.7-6-4.7s-1.3-1.2-4.6-1.2v-2.3c0,0-5.9-10.7-25.2-12.1v-6.6c0,0-0.2-2-2.6-2.4v-6.3h2.2v-1.2h-2.2V312h-1v3.5h-2.2v1.2
	h2.2v6.3c-2.4,0.3-2.6,2.4-2.6,2.4v6.6c-19.3,1.4-25.2,12.1-25.2,12.1v2.3c-3.3,0-4.6,1.2-4.6,1.2s-4.6,3.7-6,4.7v-5.4h-4.1v-12.2
	h-1.6v-3.7h-1.5v-26.5l2.2-2.1V300l-1.3-0.7v-8c0,0,0.1-2.2-1.4-2.2c0,0-1.5-0.3-1.5,2.1v3.6l-15.8-13.6v-4.5c0,0,0.1-2.5-2.6-2.8
	V268h2.3v-1h-2.3V263h-1v4.1h-2.3v1h2.3v5.8c-2.7,0.3-2.6,2.8-2.6,2.8v4.5l-15.8,13.6v-3.6c0-2.5-1.5-2.1-1.5-2.1
	c-1.5,0-1.4,2.2-1.4,2.2v8l-1.3,0.7v2.4l2.2,2.1v26.5H420v3.7h-1.6v12.2h-4.1V429h-2.6c0,0,0,8.9,0,9.7h30.4h0.2h23.7h6.7h26.8V415
	c0-5.3,4.3-9.5,9.5-9.5c5.3,0,9.5,4.3,9.5,9.5v23.7h26.8h6.7H576h0.2h30.4c0-0.8,0-9.7,0-9.7H604z M445.4,414.5h-7.5v-9.8h7.5V414.5
	z M438.9,378.3v-5.5h5.5v5.5H438.9z M446.1,332h-9v-20.5c0-2.5,2-4.5,4.5-4.5c2.5,0,4.5,2,4.5,4.5V332z M514.3,386.9h-10.2v-13.8
	h10.2V386.9z M580.1,414.5h-7.5v-9.8h7.5V414.5z M573.6,378.3v-5.5h5.5v5.5H573.6z M580.9,332h-9v-20.5c0-2.5,2-4.5,4.5-4.5
	c2.5,0,4.5,2,4.5,4.5V332z"/>
<path class="st5" d="M703.4,238.9l-0.4-1.4l-0.6,1.3l-1.5,0.3v3.2h-1.4v-19.3c0,0,1.4,0.7,1.2,0.1c0,0,0.3-0.7-1.2-1.2
	c0,0-1-0.3-1-0.4c-0.1,0,0-2,0-2.1c0-1.2,0-2.4,0-3.5c0-0.3,0-0.6,0-0.9c0.5-0.2,1.9,0.3,1.6-0.9c-0.1,0-0.2,0.1-0.3,0.1
	c-0.5,0.2-0.9,0-1.5,0.2v-7.1c0,0-0.1-0.6-0.5-0.8l-0.4-1.5l-0.4,1.3c0,0-0.8-0.1-0.9,0.4v2.6l-2.2-0.9c0-1,0-2,0-3.1
	c0-0.7,0-1.5,0-2.2c0-0.4-0.2-1.1,0.2-1.3c0.1-0.1,2.1,0,1.5-0.6c-0.4-0.4-2.1,0.2-2.1-0.5c0-1.8,0-3.6,0-5.4c0-0.7,0.1-1.2,1-1.3
	c0.3,0,0.8,0,0.8-0.4c-0.1-1-1.8,0.6-2,0c0,0,0-5.1,0-5.1c0-0.5-0.6-0.6-0.7-1c-0.1-0.2,0.3-1.4-0.2-1.3c-0.5,0-0.4,1.1-0.5,1.5
	c-0.3,0-0.5-0.1-0.6,0.2c-0.1,0.2,0,0.5-0.2,0.7l-1.2,1.1c0,0-0.3-1.1-0.9-1.2l-4.7-4.5l-1.5-2.8l-0.7,0.6l-6.1-6.3l-0.8-0.8v-9.6
	h0.7v-1.1H675l-1.5-2.1v-0.9h-0.5v-28.2c2.4-1.1,5.4,1.7,5.4,1.7c3.5,2.5,5.9-1.6,5.9-1.6V126c-3.8,2.6-5.6,0.5-5.6,0.5
	c-2.8-3.6-4.9-3.6-5.7-3.4v-0.6h-1v38.1h-0.6v0.9l-1.5,2.1H669v1.1h0.7v9.6l-0.8,0.8l-6.1,6.3l-0.7-0.6l-1.5,2.8l-4.7,4.5
	c-0.6,0.2-0.9,1.2-0.9,1.2l-1.2-1.1c-0.2-0.2-0.1-0.5-0.2-0.7c-0.2-0.3-0.3-0.1-0.6-0.2c-0.1-0.3,0-1.4-0.5-1.5
	c-0.5-0.1-0.1,1.1-0.2,1.3c-0.1,0.3-0.7,0.5-0.7,1c0,0,0,5.1,0,5.1c-0.3,0.6-2-1-2,0c0,0.4,0.6,0.4,0.8,0.4c0.9,0.1,1,0.6,1,1.3
	c0,1.8,0,3.6,0,5.4c0,0.7-1.7,0.2-2.1,0.5c-0.6,0.6,1.4,0.5,1.5,0.6c0.4,0.3,0.2,0.9,0.2,1.3c0,0.7,0,1.5,0,2.2c0,1,0,2,0,3.1
	l-2.2,0.9v-2.6c-0.1-0.5-0.9-0.4-0.9-0.4l-0.4-1.3l-0.4,1.5c-0.4,0.2-0.5,0.8-0.5,0.8v7.1c-0.5-0.2-0.9,0-1.5-0.2
	c-0.1,0-0.2-0.1-0.3-0.1c-0.3,1.1,1.1,0.7,1.6,0.9c0,0.3,0,0.6,0,0.9c0,1.2,0,2.4,0,3.5c0,0.2,0.1,2.1,0,2.1c0,0-1,0.4-1,0.4
	c-1.5,0.5-1.2,1.2-1.2,1.2c-0.2,0.6,1.2-0.1,1.2-0.1v19.3h-1.4v-3.2l-1.5-0.3l-0.6-1.3l-0.4,1.4l-1.1,0.4v199.4h32h0.1h32V239.3
	L703.4,238.9z"/>
<path class="st6" d="M621.8,438.6l-14.2-3l11.8-100.3l0.5-3.5c0,0,0-6.7,5.2-6.7c0,0,5.8-1.4,7.1-3c0,0,2.1-2.9,2.1-4.8
	c0,0-6.7-2.4-11.2-9.4c0,0-5.9-8.6-1.8-14.7l0.5-0.9l-7.3-2.3l-8.2-0.3l4.2-9.2h45.6l-4.5,10.6h-19.6c0,0,10.3,4.4,11.4,17.4
	c0,0,3,2.6,3.2,7.1l8.3,118.2l-19.8,2.6l1.2-105.3c0,0-4.7,0.2-6.5,2.4c0,0-0.9,0.8-0.9,3l-1.7,99.6L621.8,438.6z"/>
<path class="st7" d="M417.6,432.3v-13.4h-7l-0.5-51.1h-2.9c0.2-0.6,0.2-1.1,0.2-1.6c0-0.4-0.1-0.8-0.2-1.2c-0.1-0.7,0.4-1.3,0.5-2
	c0-0.7-0.2-1.5-0.4-2.2c-0.2-0.7-0.6-1.3-0.7-2.1c-0.2-1.1,0.3-2.2,0.2-3.3c0-0.6-0.1-1.2-0.2-1.8c-0.1-0.4-0.2-0.7-0.1-1.1
	c0.1-0.4,0.8-1.4,1.2-1.2c0.5,0.2,0.1,1.4,0.4,1.8c0.3,0.4,1.4,0.7,1.8,0.4c0.5-0.4,0-1.6-0.1-2.1c-0.3-0.9-0.1-1.9-0.3-2.8
	c-0.1-1-0.4-2-0.6-3.1c-0.2-1-0.5-1.9-0.8-2.9c-0.3-1-0.9-1.1-1.8-1.4c-0.8-0.3-1.5-0.8-2.3-1.2c0.5-0.4,0.7-1,0.6-1.7
	c0-0.6,0-1.1-0.3-1.6c-0.2-0.6-0.6-1-1.2-1.2c-0.6-0.1-1.4-0.2-1.9,0.3c-0.6,0.5-0.6,1.6-0.7,2.3l-0.6-2.9c0,0-0.3-2.3-0.7-3.3
	c0,0-0.2-0.7,0-1.4c0.1-0.3,0.1-0.9,0.3-1.2c0.3-0.4,13.1-7,13.4-7.1l-0.4-0.6l-14.1,7.2c0,0-1.7,0.5-2.4,1.5L391,335l1,1.1l4-3.9
	l1.6-1.5c0,0-0.1,0.4,0.2,0.9c0,0-0.5,2.6,0.3,4.1c0,0,0.3,2.3,0.8,3.5c0,0-0.8,0.4-0.3,1.5l1.2,1.1l-0.1,2.5c0,0-1.1,2.3-1.2,3
	c0,0-0.3,1,0.6,2c0,0-0.6,1.6-0.4,2.8l-0.3,3.7c-0.1,0.7-0.2,1.5-0.3,2.2c-0.1,1-0.2,2.1,0.1,3.1c0.3,0.7,0.3,1.4,0.5,2.1
	c0.1,0.6,0.4,1.3,0.4,1.9c0,0.4-0.1,0.5-0.3,0.8c-0.3,0.3-0.3,0.5-0.4,0.8c-0.1,0.3-0.3,0.7-0.3,1h-0.4l-0.5,51.1h-7v13.4h-4.6v6.3
	h36.9v-6.3H417.6z M401.2,366.9c-0.1-1.5-0.2-2.9-0.2-4.4c0-0.9,0.2-1.8,0.1-2.6c0-0.9-0.4-1.9-0.1-2.8c0.3-1,1-1.7,1.5-2.6
	c0.2,1.2,0.5,2.4,0.8,3.7c0.1,0.5,0.4,0.8,0.6,1.2c0.3,0.4,0.2,0.9,0.2,1.4c0,0.5,0.1,0.9,0.2,1.4c0,0.5,0,0.9,0.2,1.3
	c0.3,0.9,0.7,1.5,0.6,2.4c-0.1,0.4-0.2,0.8-0.5,1.1c-0.3,0.3-0.5,0.4-0.6,0.7h-2.7C401.3,367.4,401.3,367.1,401.2,366.9z"/>
</svg>
