<svg xmlns="http://www.w3.org/2000/svg" viewBox="0 0 565.08 316.17"><defs><style>.cls-1{isolation:isolate;}.cls-2{fill:#e90e8b;}.cls-2,.cls-3,.cls-4,.cls-5,.cls-6,.cls-7,.cls-8{mix-blend-mode:multiply;}.cls-3{fill:#28a8e0;}.cls-4{fill:#fcee21;}.cls-5{fill:#652f8f;}.cls-6{fill:#29b574;}.cls-7{fill:#eb2227;}.cls-8{fill:#f69321;}</style></defs><title>sananto</title><g class="cls-1"><g id="Layer_2" data-name="Layer 2"><g id="Layer_1-2" data-name="Layer 1"><path class="cls-2" d="M154.55,239.92v-7.35H141.92V228.9H129c-2.91-1.29-8.64-4.2-11.64-8.21V215h-7.07s-1-8-9.12-8.41v0l-.31,0-.3,0v0c-8.12.4-9.13,8.41-9.13,8.41H84.32v5.68c-3,4-8.73,6.92-11.64,8.21h-13v3.67H47.08v7.35H0v76.25H67.29V300.48a4,4,0,1,1,7.92,0v15.69H89.27V294.29a11.54,11.54,0,1,1,23.08,0v21.88h14.07V300.48a4,4,0,0,1,7.92,0v15.69h67.29V239.92Z"/><path class="cls-3" d="M531,110.12l-.81-3.6h-.11c-.14-2.72-10.39-5-23.76-5.36l-2.44-47.77-2.35,47.77c-13.37.41-23.6,2.64-23.75,5.36h-.12l-.8,3.6,6.91,21.75s0,.09,0,.13c0,2.33,6.77,4.25,15.7,4.66l-4.34,179.51h17.64l-4.35-179.51c8.94-.41,15.71-2.33,15.71-4.66,0,0,0-.08,0-.13Z"/><path class="cls-4" d="M258.49,283.76V266l-1.92-2.81V247.16l-2-2.55V227.9l-1.53-2V210.3l-1.53-2.17V196.78l-1.28-1.28V168.85l3.58-1.41-.07-.31-21.23-5.39v0l-.07,0-.06,0v0l-21.24,5.39-.06.31,3.57,1.41V195.5l-1.28,1.28v11.35l-1.53,2.17v.09h-8v-1l-1.47-.51v-2.81l-.25-1.09s.76-.57.12-1c0,0-.25-.83-.7-.44l-.38.19-.38-5.74-.38-.38.12-1.15h.77v-1.15h-.7s0-.89-.58-.89-.57.89-.57.89h-.7v1.15h.76l.13,1.15-.38.38-.39,5.74-.38-.19c-.45-.39-.7.44-.7.44-.64.45.13,1,.13,1l-.26,1.09v2.81l-1.46.51v1h-8.45l-2.54-3.68v-3.64H184V200h.51s.09.57.57.57c0,0,.58,0,.58-.57a1,1,0,0,0,.49-.81.58.58,0,0,0-.59-.64s0-.54-.48-.54a.54.54,0,0,0-.55.54h-.59v-.66s.55-.06.55-.52a.57.57,0,0,0-.59-.58s0-.49-.41-.55v0h-.06v0c-.39.06-.41.55-.41.55a.57.57,0,0,0-.59.58c0,.46.55.52.55.52v.66h-.59a.54.54,0,0,0-.56-.54c-.49,0-.47.54-.47.54a.58.58,0,0,0-.59.64,1,1,0,0,0,.49.81c0,.53.57.57.57.57.5,0,.58-.57.58-.57h.51v3.06h-1.15v3.64l-2.54,3.68h-8.44v-1l-1.47-.51v-2.81L169,205s.77-.57.13-1c0,0-.25-.83-.7-.44l-.38.19-.38-5.74-.39-.38.13-1.15h.76v-1.15h-.7s0-.89-.57-.89-.58.89-.58.89h-.7v1.15h.77l.13,1.15-.39.38-.38,5.74-.38-.19c-.45-.39-.7.44-.7.44-.64.45.12,1,.12,1l-.25,1.09v2.81l-1.47.51v1h-6.37v-.09l-1.53-2.17V196.78l-1.27-1.28V168.85l3.57-1.41-.06-.31-21.24-5.39v0l-.07,0-.06,0v0l-21.24,5.39-.06.31,3.57,1.41V195.5l-1.28,1.28v11.35l-1.53,2.17v15.56l-1.53,2v16.71l-2,2.55v16.07L110.06,266v17.72l-2.3,2.3v30.11h153V286.06ZM137.76,228a3.49,3.49,0,1,1-3.49-3.49A3.49,3.49,0,0,1,137.76,228Zm-8.88-49.87s.28-3.29,2.57-3.89h0c2.29.6,2.57,3.89,2.57,3.89v33.8h-5.17Zm8.88,132.26H124.91v-19s.68-9.43,6.38-11.1v0l.05,0,0,0v0c5.69,1.67,6.37,11.1,6.37,11.1Zm6.49-98.46h-5.16v-33.8s.27-3.29,2.56-3.89h0c2.29.6,2.56,3.89,2.56,3.89Zm40,14.53a6.89,6.89,0,1,1-6.88,6.89A6.9,6.9,0,0,1,184.27,226.45Zm8.36,83.93H175.92V290.61s.88-9.82,8.29-11.57v0l.06,0,.07,0v0c7.4,1.75,8.29,11.57,8.29,11.57ZM234.5,178.12s.27-3.29,2.56-3.89h0c2.29.6,2.56,3.89,2.56,3.89v33.8H234.5Zm-.23,46.38a3.49,3.49,0,1,1-3.48,3.49A3.49,3.49,0,0,1,234.27,224.5Zm-4.81-12.58h-5.17v-33.8s.28-3.29,2.56-3.89h0c2.29.6,2.57,3.89,2.57,3.89Zm14.17,98.46H230.78v-19s.68-9.43,6.37-11.1v0l.06,0,0,0v0c5.69,1.67,6.37,11.1,6.37,11.1Z"/><path class="cls-5" d="M464.55,306.47V224.35h-4.13V212.13h-1.58v-3.74h-1.45V181.9l2.21-2.06v-2.36l-1.33-.74v-8s.1-2.17-1.37-2.17c0,0-1.48-.34-1.48,2.12v3.6l-15.75-13.59v-4.53a2.78,2.78,0,0,0-2.59-2.81v-5.81h2.32v-1h-2.32v-4.06h-1v4.06h-2.33v1h2.33v5.81a2.77,2.77,0,0,0-2.58,2.81v4.53l-15.76,13.59v-3.6c0-2.46-1.48-2.12-1.48-2.12-1.48,0-1.37,2.17-1.37,2.17v8l-1.33.74v2.36l2.21,2.06v26.49h-1.45v3.74h-1.58v12.22h-4.13v5.4c-1.4-1-6-4.67-6-4.67s-1.28-1.18-4.63-1.18v-2.26s-5.9-10.73-25.21-12.11v-6.6a2.85,2.85,0,0,0-2.61-2.38v-6.31h2.18v-1.18h-2.18v-3.55h-1v3.55H367v1.18h2.18v6.31a2.87,2.87,0,0,0-2.62,2.38v6.6c-19.3,1.38-25.2,12.11-25.2,12.11v2.26c-3.35,0-4.64,1.18-4.64,1.18s-4.62,3.66-6,4.67v-5.4h-4.13V212.13H325v-3.74h-1.45V181.9l2.21-2.06v-2.36l-1.33-.74v-8s.1-2.17-1.37-2.17c0,0-1.48-.34-1.48,2.12v3.6l-15.75-13.59v-4.53a2.79,2.79,0,0,0-2.59-2.81v-5.81h2.32v-1h-2.32v-4.06h-1v4.06H300v1h2.33v5.81a2.78,2.78,0,0,0-2.59,2.81v4.53L284,172.31v-3.6c0-2.46-1.48-2.12-1.48-2.12-1.48,0-1.37,2.17-1.37,2.17v8l-1.33.74v2.36L282,181.9v26.49h-1.45v3.74H279v12.22h-4.13v82.12h-2.57v9.7h87.87V292.5a9.55,9.55,0,0,1,19.1,0v23.67h87.86v-9.7ZM305.89,292h-7.48v-9.85h7.48Zm-6.5-36.24v-5.52h5.51v5.52Zm7.27-46.28h-9V189a4.51,4.51,0,0,1,9,0Zm68.16,54.95H364.58V250.67h10.24ZM440.59,292h-7.48v-9.85h7.48Zm-6.49-36.24v-5.52h5.51v5.52Zm7.27-46.28h-9V189a4.52,4.52,0,0,1,9,0Z"/><path class="cls-6" d="M564,116.4l-.41-1.41-.59,1.29-1.53.3v3.17H560V100.4s1.41.71,1.23.06c0,0,.3-.7-1.17-1.23l-1-.36a13.87,13.87,0,0,1,0-2.14V92.35c.51-.19,1.92.27,1.62-.86a1.46,1.46,0,0,0-.34.1c-.52.15-.92,0-1.46.17V84.64a1.32,1.32,0,0,0-.53-.82L558,82.35l-.41,1.29s-.82-.11-.88.36v2.59l-2.18-.89c0-1,0-2,0-3,0-.74,0-1.48,0-2.22,0-.42-.2-1.1.21-1.35.11-.07,2.1,0,1.51-.59-.38-.37-2.1.18-2.08-.55,0-1.79,0-3.6,0-5.39,0-.72.12-1.21,1-1.3.26,0,.85,0,.82-.41-.07-1-1.76.59-2,0V65.71c0-.51-.56-.65-.68-1s.33-1.36-.21-1.3-.41,1.14-.47,1.46c-.33,0-.45-.14-.64.19s0,.47-.17.7l-1.24,1.12s-.29-1.06-.94-1.24l-4.7-4.53-1.47-2.82-.71.65-6.06-6.3-.82-.82V42.24h.71V41.13h-.94L534.09,39v-.94h-.5V9.85C536,8.71,539,11.56,539,11.56,542.53,14,544.9,10,544.9,10V3.57c-3.8,2.62-5.56.46-5.56.46C536.56.46,534.47.4,533.59.59V0h-1V38.07H532V39l-1.47,2.12h-.94v1.11h.7v9.59l-.82.82L523.38,59l-.7-.65-1.47,2.82-4.71,4.53c-.64.18-.94,1.24-.94,1.24l-1.23-1.12c-.2-.23-.06-.5-.18-.7s-.3-.15-.64-.19c0-.32,0-1.41-.46-1.46s-.14,1.08-.21,1.3-.69.48-.69,1v5.11c-.27.61-2-1-2,0,0,.43.57.38.82.41.86.09,1,.58,1,1.3,0,1.79,0,3.6,0,5.39,0,.73-1.7.18-2.08.55-.59.56,1.4.52,1.52.59.4.25.2.93.21,1.35,0,.74,0,1.48,0,2.22,0,1,0,2,0,3l-2.17.89V84c-.06-.47-.89-.36-.89-.36l-.41-1.29-.41,1.47a1.38,1.38,0,0,0-.53.82v7.12c-.53-.16-.94,0-1.45-.17a1.62,1.62,0,0,0-.34-.1c-.31,1.13,1.1.67,1.62.86v4.38a13.87,13.87,0,0,1,0,2.14l-1,.36c-1.47.53-1.18,1.23-1.18,1.23-.18.65,1.24-.06,1.24-.06v19.35h-1.42v-3.17l-1.52-.3-.59-1.29-.42,1.41-1.11.41V316.17h64.1V116.81Z"/><path class="cls-7" d="M482.35,316.17l-14.24-3,11.82-100.32.53-3.48s0-6.67,5.23-6.67c0,0,5.76-1.37,7.12-3,0,0,2.12-2.88,2.12-4.85a25.22,25.22,0,0,1-11.21-9.4s-5.91-8.64-1.82-14.7l.46-.91-7.28-2.27-8.18-.3,4.24-9.25h45.61l-4.54,10.61H492.66A20.79,20.79,0,0,1,504,186a10.33,10.33,0,0,1,3.19,7.13l8.33,118.2-19.85,2.57,1.21-105.31s-4.7.15-6.52,2.42c0,0-.9.76-.9,3l-1.67,99.56Z"/><path class="cls-8" d="M278.13,309.83V296.39h-7l-.5-51.08h-2.89a5.89,5.89,0,0,0,.22-1.56,11.6,11.6,0,0,0-.19-1.18c-.09-.72.42-1.3.46-2a9,9,0,0,0-.38-2.17c-.16-.72-.63-1.34-.74-2.06a23.28,23.28,0,0,1,.24-3.32,9.9,9.9,0,0,0-.18-1.8,2.88,2.88,0,0,1-.09-1.09c.08-.37.76-1.43,1.24-1.2s.07,1.4.38,1.81a1.69,1.69,0,0,0,1.83.39c.5-.4,0-1.58-.11-2.07a17.73,17.73,0,0,1-.27-2.83c-.13-1-.36-2.05-.59-3.05s-.51-1.94-.79-2.89-.94-1.08-1.8-1.36a16.67,16.67,0,0,1-2.27-1.15,1.92,1.92,0,0,0,.63-1.74,4.42,4.42,0,0,0-.28-1.62,1.62,1.62,0,0,0-1.23-1.16,2.2,2.2,0,0,0-1.92.25,3.49,3.49,0,0,0-.67,2.32l-.63-2.87a22.4,22.4,0,0,0-.68-3.34,3.28,3.28,0,0,1,0-1.39,3.77,3.77,0,0,1,.27-1.19c.3-.43,13.11-7,13.44-7.14l-.38-.57-14.13,7.23a5.15,5.15,0,0,0-2.41,1.52l-5.26,4.43,1,1.08,4-3.86,1.64-1.46a1.16,1.16,0,0,0,.19.89s-.5,2.59.26,4.11a17.46,17.46,0,0,0,.76,3.55,1.1,1.1,0,0,0-.32,1.46l1.21,1.08-.07,2.53a21.87,21.87,0,0,0-1.2,3,2.38,2.38,0,0,0,.57,2,5.9,5.9,0,0,0-.38,2.79l-.32,3.68c-.13.73-.24,1.48-.3,2.23a7.54,7.54,0,0,0,.13,3.07,18.12,18.12,0,0,1,.46,2.12,15.3,15.3,0,0,1,.41,1.9c.05.4-.1.52-.33.8a2.81,2.81,0,0,0-.43.82,4.14,4.14,0,0,0-.34,1H258l-.5,51.08h-7v13.44h-4.63v6.34h36.89v-6.34Zm-16.42-65.46c-.06-1.46-.22-2.91-.25-4.37,0-.89.18-1.75.15-2.65a8.45,8.45,0,0,1-.12-2.79A10.82,10.82,0,0,1,263,232c.23,1.24.51,2.44.82,3.66a5,5,0,0,0,.64,1.23,2.6,2.6,0,0,1,.22,1.38c0,.48.14.94.16,1.42a3.81,3.81,0,0,0,.18,1.34,3.9,3.9,0,0,1,.55,2.44,1.82,1.82,0,0,1-.51,1.13,2,2,0,0,0-.62.72h-2.68A3.08,3.08,0,0,0,261.71,244.37Z"/></g></g></g></svg>