<svg xmlns="http://www.w3.org/2000/svg" width="96" height="72" viewBox="0 0 96 72"><path d="M94.8,84.8H91.2V68.585a9.609,9.609,0,0,0-2.82-6.78L75.8,49.22a9.557,9.557,0,0,0-6.78-2.82H62.4V38.99A7.221,7.221,0,0,0,54.99,32H7.41A7.221,7.221,0,0,0,0,38.99V82.61A7.221,7.221,0,0,0,7.41,89.6H9.84A11.529,11.529,0,0,0,9.6,92a12,12,0,0,0,24,0,12.642,12.642,0,0,0-.24-2.4H62.64A11.529,11.529,0,0,0,62.4,92a12,12,0,0,0,24,0,12.642,12.642,0,0,0-.24-2.4H94.8A1.2,1.2,0,0,0,96,88.4V86A1.2,1.2,0,0,0,94.8,84.8ZM69.015,51.2a4.791,4.791,0,0,1,3.39,1.41L84.99,65.195a4.014,4.014,0,0,1,.27.42H62.4v-14.4h6.615ZM21.6,99.2A7.2,7.2,0,1,1,28.8,92,7.2,7.2,0,0,1,21.6,99.2Zm9.54-14.4a11.88,11.88,0,0,0-19.08,0H7.41A2.425,2.425,0,0,1,4.8,82.61V38.99A2.425,2.425,0,0,1,7.41,36.8H54.99a2.425,2.425,0,0,1,2.61,2.19V84.8ZM74.4,99.2A7.2,7.2,0,1,1,81.6,92,7.2,7.2,0,0,1,74.4,99.2Zm0-19.2a11.937,11.937,0,0,0-9.54,4.8H62.4V70.4h24V84.8H83.94A11.937,11.937,0,0,0,74.4,80Z" transform="translate(0 -32)"/></svg>