<svg xmlns="http://www.w3.org/2000/svg" viewBox="0 0 636.88 227.4"><defs><style>.cls-1{isolation:isolate;}.cls-10,.cls-2,.cls-4,.cls-5,.cls-7,.cls-8{mix-blend-mode:multiply;}.cls-3{fill:#eb2227;}.cls-4{fill:none;}.cls-5{fill:#1d76bb;}.cls-6{fill:#20aa4a;}.cls-7{fill:#e90e8b;}.cls-8{fill:#f69321;}.cls-9{fill:#28a8e0;}.cls-10{fill:#fcee21;}</style></defs><title>la</title><g class="cls-1"><g id="Layer_2" data-name="Layer 2"><g id="Layer_1-2" data-name="Layer 1"><g class="cls-2"><rect class="cls-3" x="515.33" y="191.51" width="121.55" height="35.89"/><polygon class="cls-3" points="632.98 186.28 621.77 182.35 575.25 182.35 573.16 182.35 530.37 182.35 519.16 186.28 519.16 222.16 633.05 222.16 633.05 186.28 632.98 186.28"/><polygon class="cls-3" points="594.71 192.07 557.51 192.07 559.01 108.89 593.21 108.89 594.71 192.07"/><path class="cls-3" d="M561.29,113.57a.84.84,0,0,1-.84.84h0a.85.85,0,0,1-.84-.84v-5.52a.84.84,0,0,1,.84-.84h0a.83.83,0,0,1,.84.84Z"/><path class="cls-3" d="M592.6,113.57a.84.84,0,0,1-.84.84h0a.85.85,0,0,1-.84-.84v-5.52a.84.84,0,0,1,.84-.84h0a.83.83,0,0,1,.84.84Z"/><rect class="cls-3" x="563.07" y="92.54" width="26.08" height="22.15"/><rect class="cls-3" x="565.5" y="80.48" width="21.21" height="18.97"/><rect class="cls-3" x="567.93" y="77.63" width="16.35" height="12.25"/><rect class="cls-3" x="563.81" y="83.37" width="24.58" height="1.22"/><rect class="cls-3" x="569.12" y="74.8" width="13.96" height="1.91"/><rect class="cls-3" x="568.46" y="76.28" width="15.29" height="1.91"/><rect class="cls-3" x="569.87" y="73.35" width="12.46" height="1.92"/><rect class="cls-3" x="573.18" y="68.15" width="5.86" height="1.55"/><rect class="cls-3" x="572.52" y="69.49" width="7.17" height="1.55"/><rect class="cls-3" x="571.75" y="70.82" width="8.71" height="1.55"/><rect class="cls-3" x="570.85" y="72.06" width="10.52" height="1.55"/></g><path class="cls-4" d="M215.35,172.93a9.4,9.4,0,0,0-9.4,9.4v31.55h18.8V182.33A9.4,9.4,0,0,0,215.35,172.93Z"/><path class="cls-4" d="M421.5,172.93a9.4,9.4,0,0,0-9.41,9.4v31.55H430.9V182.33A9.4,9.4,0,0,0,421.5,172.93Z"/><path class="cls-4" d="M163.81,172.93a9.4,9.4,0,0,0-9.4,9.4v31.55h18.8V182.33A9.4,9.4,0,0,0,163.81,172.93Z"/><path class="cls-4" d="M473,172.93a9.4,9.4,0,0,0-9.4,9.4v31.55h18.8V182.33A9.4,9.4,0,0,0,473,172.93Z"/><path class="cls-5" d="M162.72,161.07v31.67h-23.3c-4.5-1.76-3.84-6.1-3.84-7.18a.84.84,0,0,0-.86-.89h-2.67V170.73H129v-.82c0-.55-.28-.76-.63-.76h-2.13c-.94-.14-1.89-.57-1.89-1.71a.83.83,0,0,0-.85-.89h-4.39l-2-1.61h-1l-.72-.79h-.22l-.63-12.42h-.32l-.25-1h-.24l.6-3.82c.74-.15,1.21-.38,1.21-.64,0-.45-1.41-.82-3.14-.82s-3.15.37-3.15.82c0,.26.48.49,1.21.64l.61,3.82h-.24l-.25,1h-.28s-.59,10.84-.67,12.42h-.46l-.61.79h-1.27l-1.72,1.61H101.1a.83.83,0,0,0-.85.89c0,1.14-.94,1.57-1.89,1.71H96.23c-.35,0-.63.21-.63.76v.82H92.51v13.94H89.83a.84.84,0,0,0-.85.89c0,1.08.66,5.42-3.85,7.18H61.83V161.07H27.39V227.4H61.83v-.1h1.71V211.49a4.71,4.71,0,1,1,9.42,0V227.3h3.91V211.49a4.71,4.71,0,1,1,9.42,0V227.3h6.22v.1h12.3V197.15a7.65,7.65,0,1,1,15.3,0V227.4h11.94v-.1h6.21V211.49a4.72,4.72,0,1,1,9.43,0V227.3h3.9V211.49a4.72,4.72,0,1,1,9.43,0V227.3h1.7v.1h34.44V161.07ZM48,227.3H38.55V211.49a4.71,4.71,0,1,1,9.42,0Zm12.5,0H51V211.49a4.72,4.72,0,1,1,9.43,0Zm113,0h-9.43V211.49a4.72,4.72,0,1,1,9.43,0Zm12.5,0h-9.43V211.49a4.72,4.72,0,1,1,9.43,0Z"/><g class="cls-2"><path class="cls-6" d="M121.48,107l-6,12.64,2.17-15.83c-4.42,16.71-6.5,23.64-7.31,26.19-5.81,3.94-21.44,12.55-47.62,12.9H59.44c-26.66-.36-42.39-9.28-47.94-13.12-.39-1.14-2.31-7-7.66-27.27L6,118.34,0,105.69l5.79,17.5L.34,115l5.45,12.27,1.53,3.83-.17.28,17.52,37.54H39.94v-5.16H82.21v5.16H97.48L115,131.34l-.26-.42,1-2.39,5.45-12.28-5.45,8.24Z"/><path class="cls-6" d="M96.87,121.94H92.69l-1.23-9.15H88.73l-1.1-9.43H85.46l-.94-8.81H81.85V86.23H80.4V77.1H78V68.37H76.23v-7H75V56.89h-.58V52.75A2.13,2.13,0,0,0,76,50.93a1.78,1.78,0,0,0-.67-1.31c1.17-.5,1.84-1.54,1.6-3.37-.2-1.5-1-2.89-1.13-4.38-.45-3.64,3.6-8.48,3.46-8.38-2.31,1.72-5,4.48-4.94,7.55a15.56,15.56,0,0,0,.84,3.87c.63,2.32.35,3.56-2,3.66H73a30.56,30.56,0,0,0,.2-3.82A84.37,84.37,0,0,0,72.46,35a50.8,50.8,0,0,0-.39,9.23,28,28,0,0,0,.21,4.29c-2.19-.2-2.36-1.6-2-3.92.4-2.87.26-8.12-3.65-11.14-.16-.12,3.43,5.63,2.05,12-.27,2.2.44,3.51,1.88,4.11a1.75,1.75,0,0,0-.66,1.3,2.12,2.12,0,0,0,1.52,1.82v4.14H50.1V52.75a2.12,2.12,0,0,0,1.51-1.82A1.77,1.77,0,0,0,51,49.62c1.16-.5,1.84-1.54,1.59-3.37-.2-1.5-.94-2.89-1.12-4.38-.45-3.64,3.6-8.48,3.46-8.38-2.31,1.72-5,4.48-4.94,7.55a15.54,15.54,0,0,0,.83,3.87c.64,2.32.36,3.56-2,3.66h-.16a28.77,28.77,0,0,0,.21-3.82A81.28,81.28,0,0,0,48.1,35a50.8,50.8,0,0,0-.38,9.23,28,28,0,0,0,.21,4.29c-2.2-.2-2.36-1.6-2-3.92.4-2.87.26-8.12-3.65-11.14-.16-.12,3.43,5.63,2,12-.27,2.2.44,3.51,1.88,4.11a1.76,1.76,0,0,0-.67,1.3A2.13,2.13,0,0,0,47,52.75v4.14h-.58v4.44h-1.2v7H43.5V77.1H41.08v9.13H39.64v8.32H37L36,103.36H33.86l-1.11,9.43H30l-1.23,9.15H24.61L23,132.61H98.53Z"/><polygon class="cls-6" points="23.96 178.36 25.92 178.36 25.92 185.17 26.9 185.17 26.9 191.82 27.78 191.82 27.78 227.4 35.41 227.4 35.41 191.82 36.29 191.82 36.29 185.17 37.27 185.17 37.27 178.36 39.22 178.36 39.22 170.11 23.96 170.11 23.96 178.36"/><polygon class="cls-6" points="82.26 178.36 84.22 178.36 84.22 185.17 85.2 185.17 85.2 191.82 86.07 191.82 86.07 227.4 93.7 227.4 93.7 191.82 94.58 191.82 94.58 185.17 95.56 185.17 95.56 178.36 97.52 178.36 97.52 170.11 82.26 170.11 82.26 178.36"/><rect class="cls-6" x="50.92" y="183.03" width="19.64" height="43.07"/><path class="cls-6" d="M66.16,177a5.42,5.42,0,1,0-5.42,5.41A5.42,5.42,0,0,0,66.16,177Z"/><rect class="cls-6" x="41.49" y="164.89" width="38.5" height="5.22"/></g><path class="cls-7" d="M565.8,108.93l-6.87-7.71h0V94.76h6.87L558.93,87H545.11V80.29h9.18V71H528L524.63,0l-3.5,71H494.85v9.33H504V87H489.85v.41l-6.52,7.31h6.52v6.87l-6.52,7.3h6.52v6.86l-6.52,7.31h6.52V130l-6.52,7.31h6.52v6.87l-6.52,7.3h6.52v6.87l-6.52,7.3h6.52v6.87l-6.52,7.3h6.52v6.88l-6.52,7.3h6.52v6.87l-6.52,7.3h6.52V215l-6.52,7.3h6.52v5.1h9.64v-5.1h4.67v5.1H507v-5.1h6.45v5.1h2.81v-5.1h6.45v5.1h2.8v-5.1h6.46v5.1h2.8v-5.1h6.46v5.1H544v-5.1h5.29v5.1h9.65v-5.1h6.87l-6.87-7.71h0v-6.46h6.87l-6.87-7.71h0V194h6.87l-6.87-7.72h0v-6.46h6.87l-6.87-7.71h0v-6.46h6.87l-6.87-7.7h0v-6.47h6.87l-6.87-7.71h0v-6.46h6.87l-6.87-7.71h0V123.1h6.87l-6.87-7.71h0v-6.46Zm-16.52-7.71H544V94.76h5.29Zm-26.61-6.46v6.46h-6.45V94.76Zm0,14.17v6.46h-6.45v-6.46Zm0,14.17v6.46h-6.45V123.1Zm0,14.17v6.46h-6.45v-6.46Zm0,14.17v6.47h-6.45v-6.47Zm0,14.17v6.46h-6.45v-6.46Zm0,14.17v6.46h-6.45v-6.46Zm2.8,0h6.46v6.46h-6.46Zm0-7.71v-6.46h6.46v6.46Zm0-14.16v-6.47h6.46v6.47Zm0-14.18v-6.46h6.46v6.46Zm0-14.17V123.1h6.46v6.46Zm0-14.17v-6.46h6.46v6.46Zm0-14.17V94.76h6.46v6.46Zm-12.06-6.46v6.46H507V94.76Zm0,14.17v6.46H507v-6.46Zm0,14.17v6.46H507V123.1Zm0,14.17v6.46H507v-6.46Zm0,14.17v6.47H507v-6.47Zm0,14.17v6.46H507v-6.46Zm0,14.17v6.46H507v-6.46Zm0,14.18v6.46H507V194Zm2.81,0h6.45v6.46h-6.45Zm9.25,0h6.46v6.46h-6.46Zm9.26,0h6.46v6.46h-6.46Zm0-7.72v-6.46h6.46v6.46Zm0-14.17v-6.46h6.46v6.46Zm0-14.16v-6.47h6.46v6.47Zm0-14.18v-6.46h6.46v6.46Zm0-14.17V123.1h6.46v6.46Zm0-14.17v-6.46h6.46v6.46Zm0-14.17V94.76h6.46v6.46Zm-30.57-6.46v6.46h-4.67V94.76Zm0,14.17v6.46h-4.67v-6.46Zm0,14.17v6.46h-4.67V123.1Zm0,14.17v6.46h-4.67v-6.46Zm0,14.17v6.47h-4.67v-6.47Zm0,14.17v6.46h-4.67v-6.46Zm0,14.17v6.46h-4.67v-6.46Zm0,14.18v6.46h-4.67V194Zm-4.67,20.63v-6.46h4.67v6.46Zm7.47,0v-6.46h6.45v6.46Zm9.26,0v-6.46h6.45v6.46Zm9.25,0v-6.46h6.46v6.46Zm9.26,0v-6.46h6.46v6.46Zm14.55,0H544v-6.46h5.29Zm0-14.17H544V194h5.29Zm0-14.18H544v-6.46h5.29Zm0-14.17H544v-6.46h5.29Zm0-14.16H544v-6.47h5.29Zm0-14.18H544v-6.46h5.29Zm0-14.17H544V123.1h5.29Zm0-14.17H544v-6.46h5.29Z"/><path class="cls-8" d="M466.65,204.08v1.73l-3.31-1.73V193.63h.79v-2.22h-.79v-4.9h-1.09v-2.26l1.49-1.4v-1.31h.65v-2.21h-.65c0-7.78-7.84-14.38-7.84-14.38a24.06,24.06,0,0,0-15.35-6.33h-8.49c-2.61.14-2.28,1.37-2.28,1.37.13,1.18,1.56,1,1.56,1v1.24c-13.71,5.88-11.14,20.79-11.14,20.79h-.87v2.79h.87v3h-.78v2.09H369.61v-1.22h-2.7l.08-.87a2.32,2.32,0,0,0,.36-1.49c.08-1.3-1.49-1.65-1.49-1.65v-1.57c1.74-2.78-.43-4.18-.43-4.18l-4.06-40.45h-.61l-.69-6.27H359v-1.43h-1.83v-.52h-.56v-1.48l3.09-1.83v-1.31l-3.29-1.48v-2.24l-.91-.92-.76.77V125l-3.31,1.84v1l3.61,1.88v1.48h-.66v.52h-1.61v1.43h-1l-.44,6.27h-.65l-2.27,30.31c-11.37-17.9-33.83-17.9-33.83-17.9-33.26,0-40.45,33.19-40.45,33.19h-2.74V188h-.65v2.66H217.26v-5.58H218V182.2h-.87v-2.62a20.16,20.16,0,0,0-9.74-17.13v-.15c.55-1.26,2.25-.74,2.25-.74v-.95H205a7.16,7.16,0,0,0-3.91-1.75H189.53a3.65,3.65,0,0,0-2.35,2.14,20.37,20.37,0,0,0-12.5,18.58,19.16,19.16,0,0,0,.16,2.52H173.7v2.39h1v2.87H173.5v4.9h-.79v2.22h.79v10.45l-3.31,1.74v-1.74h-5.57V227.4l307.6-.85V204.08Zm-262,16.44h-5.93V206.76h5.93Zm15.32,0H214V206.76h5.93Zm15.33,0h-5.93V206.76h5.93Zm15.32,0h-5.92V206.76h5.92Zm15.33,0H260V206.76h5.93Zm60.34,2.26H310.59V197.7h15.67Zm50.6-2.26h-5.92V206.76h5.92Zm15.32,0h-5.92V206.76h5.92Zm15.33,0h-5.92V206.76h5.92Zm15.32,0h-5.92V206.76h5.92Zm15.33,0h-5.92V206.76h5.92Z"/><g class="cls-2"><polygon class="cls-9" points="366.15 115.14 366.15 128.65 357.14 128.65 357.14 115.14 348.59 115.14 348.59 149.82 357.14 149.82 357.14 136.31 366.15 136.31 366.15 149.82 374.71 149.82 374.71 115.14 366.15 115.14"/><path class="cls-9" d="M399.13,113.57h-9.68l-7.31,5.63V144l7.31,4.5h9.68l7.32-4.5V119.2Zm-1,23.86a3.83,3.83,0,1,1-7.65,0V124.6a3.83,3.83,0,1,1,7.65,0Z"/><polygon class="cls-9" points="424.12 139.8 424.12 112.89 415.45 112.89 415.45 139.8 415.45 146.1 415.45 147.79 439.32 147.79 439.32 139.8 424.12 139.8"/><polygon class="cls-9" points="450.01 140.47 450.01 113.57 441.35 113.57 441.35 140.47 441.35 146.78 441.35 148.46 465.21 148.46 465.21 140.47 450.01 140.47"/><path class="cls-9" d="M477.14,114.25s-4.73,13.5-5.06,13.62c-.34-.12-5.07-13.62-5.07-13.62h-8.55l8.1,22.62v12.31h11V136.87l8.11-22.62Z"/><polygon class="cls-9" points="508.81 117.44 506.34 130.42 504.54 117.44 502.21 117.44 499.88 117.44 498.08 130.42 495.61 117.44 487.2 117.44 493.58 151.95 498.38 151.95 502.21 139.05 506.04 151.95 510.84 151.95 517.22 117.44 508.81 117.44"/><path class="cls-9" d="M540.52,117.25h-9.68l-7.32,5.62v24.77l7.32,4.5h9.68l7.31-4.5V122.87Zm-1,23.86a3.83,3.83,0,0,1-7.66,0V128.28a3.83,3.83,0,0,1,7.66,0Z"/><path class="cls-9" d="M571.44,117.44h-9.68l-7.32,5.62v24.77l7.32,4.5h9.68l7.31-4.5V123.06Zm-1,23.86a3.83,3.83,0,1,1-7.65,0V128.47a3.83,3.83,0,1,1,7.65,0Z"/><path class="cls-9" d="M608.56,117.26h-18.4v34.86h18.4l7.72-4.5V122.89Zm-1.07,23.84a3.93,3.93,0,0,1-4,3.83c-1.77,0-3.8-.12-3.8-.12V124.54s2-.08,3.8-.08a3.93,3.93,0,0,1,4,3.82Z"/></g><path class="cls-10" d="M508.31,224.44v-6.81h-3.82V196.69h1.66V178.11s0,0,0-.06c0-1-4.36-2-12.2-2.81V158.11c0-6.39-30.36-11.89-73.88-14.32-7.2-8.62-25.31-14.88-46.86-15.45l-3-4.6h.38V118H373v-1.33h-2.41V114.5H369.3v2.21h-2.41V118h2.41v5.7h.44l-3,4.6c-21.55.57-39.66,6.83-46.85,15.45-43.53,2.43-73.9,7.93-73.9,14.32v17.13c-7.83.86-12.19,1.81-12.19,2.81a.43.43,0,0,0,0,0v18.59h1.66v20.94h-3.82v6.81h-1.75v3H243.4V202.49a1.52,1.52,0,0,1,3,0V227.4h3.71V201.51a1.69,1.69,0,0,1,3.37,0V227.4h5.06V200.86a1.94,1.94,0,0,1,3.88,0V227.4h5V199.52a3,3,0,0,1,6.07,0V227.4h7.34V199.13a3.54,3.54,0,0,1,7.08,0V227.4H295V198.73a4.43,4.43,0,1,1,8.86,0V227.4h8.6V198.13a4.94,4.94,0,0,1,9.87,0V227.4h8.51v-30c0-2.73,2.48-4.94,5.53-4.94s5.53,2.21,5.53,4.94v30h10.37V197.82a6.45,6.45,0,1,1,12.9,0V227.4h9.53V197.82a6.46,6.46,0,1,1,12.91,0V227.4H398v-30a5.55,5.55,0,0,1,11,0v30h8.52V198.13a4.94,4.94,0,0,1,9.87,0V227.4H436V198.73a4.43,4.43,0,1,1,8.86,0V227.4H452V199.13a3.54,3.54,0,0,1,7.08,0V227.4h7.34V199.52a3,3,0,0,1,6.07,0V227.4h5V200.86a1.94,1.94,0,0,1,3.87,0V227.4h5.07V201.51a1.69,1.69,0,0,1,3.37,0V227.4h3.71V202.49a1.52,1.52,0,0,1,3,0V227.4h13.53v-3Z"/></g></g></g></svg>