<svg xmlns="http://www.w3.org/2000/svg" width="72" height="72" viewBox="0 0 72 72"><path d="M60.75,27H58.5V15.363a4.5,4.5,0,0,0-1.318-3.182L46.318,1.318A4.5,4.5,0,0,0,43.135,0H17.786A4.4,4.4,0,0,0,13.5,4.5V27H11.25A11.251,11.251,0,0,0,0,38.25v13.5A2.249,2.249,0,0,0,2.25,54H13.5V69.75A2.249,2.249,0,0,0,15.75,72h40.5a2.249,2.249,0,0,0,2.25-2.25V54H69.75A2.249,2.249,0,0,0,72,51.75V38.25A11.251,11.251,0,0,0,60.75,27ZM45,6.363,52.137,13.5H45ZM18.017,4.5H40.5v9A4.5,4.5,0,0,0,45,18h9v9H18l.014-22.5ZM54,67.5H18V54H54Zm13.5-18H4.5V38.25a6.757,6.757,0,0,1,6.75-6.75h49.5a6.757,6.757,0,0,1,6.75,6.75ZM56.25,37.125A3.375,3.375,0,1,0,59.625,40.5,3.375,3.375,0,0,0,56.25,37.125Z"/></svg>